<?xml version="1.0" encoding="UTF-8"?>
<svg width="1200" height="630" viewBox="0 0 1200 630" fill="none" xmlns="http://www.w3.org/2000/svg" role="img" aria-label="Default tile image for AI stories">
  <rect x="0" y="0" width="1200" height="630" fill="#FFFFFF"/>

  <!-- Subtle grid -->
  <g stroke="#E5E7EB" stroke-width="1">
    <path d="M0 90H1200"/>
    <path d="M0 180H1200"/>
    <path d="M0 270H1200"/>
    <path d="M0 360H1200"/>
    <path d="M0 450H1200"/>
    <path d="M0 540H1200"/>

    <path d="M120 0V630"/>
    <path d="M240 0V630"/>
    <path d="M360 0V630"/>
    <path d="M480 0V630"/>
    <path d="M600 0V630"/>
    <path d="M720 0V630"/>
    <path d="M840 0V630"/>
    <path d="M960 0V630"/>
    <path d="M1080 0V630"/>
  </g>

  <!-- Card-like frame -->
  <rect x="120" y="126" width="960" height="378" rx="14" fill="#F9FAFB" stroke="#E5E7EB"/>

  <!-- Minimal "AI" mark -->
  <g>
    <rect x="188" y="184" width="88" height="88" rx="14" fill="#FFFFFF" stroke="#D1D5DB"/>
    <path d="M218 250L232 206H244L258 250H246L243 238H233L230 250H218Z" fill="#111827"/>
    <path d="M235 229H241L238 216L235 229Z" fill="#F9FAFB"/>
    <path d="M266 206H278V250H266V206Z" fill="#111827"/>
  </g>

  <!-- Title line placeholders -->
  <rect x="300" y="192" width="680" height="18" rx="9" fill="#E5E7EB"/>
  <rect x="300" y="224" width="560" height="18" rx="9" fill="#E5E7EB"/>

  <!-- Tag pills -->
  <rect x="300" y="280" width="120" height="28" rx="14" fill="#E5E7EB"/>
  <rect x="432" y="280" width="140" height="28" rx="14" fill="#E5E7EB"/>
  <rect x="584" y="280" width="110" height="28" rx="14" fill="#E5E7EB"/>

  <!-- Footer meta -->
  <rect x="300" y="336" width="220" height="14" rx="7" fill="#D1D5DB"/>
  <rect x="540" y="336" width="160" height="14" rx="7" fill="#D1D5DB"/>

  <!-- Caption -->
  <text x="600" y="470" text-anchor="middle" font-family="ui-sans-serif, system-ui, -apple-system, Segoe UI, Roboto, Helvetica, Arial" font-size="16" fill="#6B7280">Default AI story tile</text>
</svg>
